<svg width="77" height="45" viewBox="0 0 77 45" fill="none" xmlns="http://www.w3.org/2000/svg">
<path d="M11.4983 19.843H31.1101V29.1328H11.4983V19.843ZM12.3483 43.7051H0.326238V1.2027H33.6602V10.4925H12.3483V43.7051Z" fill="#01B3F4"/>
<path d="M60.4125 44.1908C57.1743 44.1908 54.1789 43.6646 51.4263 42.6122C48.7143 41.5192 46.3463 40.0013 44.3224 38.0583C42.3389 36.0749 40.7805 33.7676 39.6471 31.1365C38.5137 28.5054 37.947 25.6112 37.947 22.4539C37.947 19.2966 38.5137 16.4024 39.6471 13.7713C40.7805 11.1402 42.3592 8.85313 44.3831 6.91016C46.407 4.92672 48.775 3.40878 51.4871 2.35634C54.2396 1.26342 57.235 0.716962 60.4733 0.716962C63.752 0.716962 66.7677 1.28366 69.5202 2.41706C72.3132 3.50997 74.6812 5.14935 76.6242 7.33519L72.6775 11.1604C71.0584 9.46031 69.2369 8.20547 67.2129 7.3959C65.189 6.54586 63.0234 6.12083 60.7161 6.12083C58.3279 6.12083 56.1016 6.52562 54.0372 7.33519C52.0133 8.14476 50.2525 9.27815 48.7548 10.7354C47.2571 12.1926 46.0832 13.9332 45.2331 15.9571C44.4236 17.9405 44.0188 20.1061 44.0188 22.4539C44.0188 24.8016 44.4236 26.9875 45.2331 29.0114C46.0832 30.9948 47.2571 32.7152 48.7548 34.1724C50.2525 35.6296 52.0133 36.763 54.0372 37.5726C56.1016 38.3822 58.3279 38.7869 60.7161 38.7869C63.0234 38.7869 65.189 38.3822 67.2129 37.5726C69.2369 36.7225 71.0584 35.4272 72.6775 33.6867L76.6242 37.5119C74.6812 39.6977 72.3132 41.3573 69.5202 42.4907C66.7677 43.6241 63.7318 44.1908 60.4125 44.1908Z" fill="#E6F7FE"/>
</svg>
